<svg xmlns="http://www.w3.org/2000/svg" width="900" height="420" viewBox="0 0 900 420">
<rect width="100%" height="100%" fill="#FFFFFF"/>
<text x="450.0" y="30.0" font-family="Arial, sans-serif" font-size="18" fill="#111827" text-anchor="middle" font-weight="700">E, S, and G Keyword Coverage</text>
<rect x="130" y="48" width="12" height="12" rx="2" fill="#2E7D32"/>
<text x="148.0" y="59.0" font-family="Arial, sans-serif" font-size="11" fill="#374151" text-anchor="start" font-weight="400">Environmental</text>
<rect x="280" y="48" width="12" height="12" rx="2" fill="#0E7490"/>
<text x="298.0" y="59.0" font-family="Arial, sans-serif" font-size="11" fill="#374151" text-anchor="start" font-weight="400">Social</text>
<rect x="430" y="48" width="12" height="12" rx="2" fill="#334155"/>
<text x="448.0" y="59.0" font-family="Arial, sans-serif" font-size="11" fill="#374151" text-anchor="start" font-weight="400">Governance</text>
<text x="114.0" y="102.0" font-family="Arial, sans-serif" font-size="12" fill="#111827" text-anchor="end" font-weight="700">Amazon</text>
<rect x="130.0" y="84.0" width="299.4" height="28" fill="#2E7D32"/>
<text x="279.7" y="104.0" font-family="Arial, sans-serif" font-size="11" fill="#FFFFFF" text-anchor="middle" font-weight="700">51</text>
<rect x="429.4" y="84.0" width="234.8" height="28" fill="#0E7490"/>
<text x="546.8" y="104.0" font-family="Arial, sans-serif" font-size="11" fill="#FFFFFF" text-anchor="middle" font-weight="700">40</text>
<rect x="664.3" y="84.0" width="135.0" height="28" fill="#334155"/>
<text x="731.8" y="104.0" font-family="Arial, sans-serif" font-size="11" fill="#FFFFFF" text-anchor="middle" font-weight="700">23</text>
<text x="866.0" y="104.0" font-family="Arial, sans-serif" font-size="11" fill="#374151" text-anchor="start" font-weight="700">114</text>
<text x="114.0" y="148.0" font-family="Arial, sans-serif" font-size="12" fill="#111827" text-anchor="end" font-weight="700">Microsoft</text>
<rect x="130.0" y="130.0" width="240.7" height="28" fill="#2E7D32"/>
<text x="250.4" y="150.0" font-family="Arial, sans-serif" font-size="11" fill="#FFFFFF" text-anchor="middle" font-weight="700">41</text>
<rect x="370.7" y="130.0" width="299.4" height="28" fill="#0E7490"/>
<text x="520.4" y="150.0" font-family="Arial, sans-serif" font-size="11" fill="#FFFFFF" text-anchor="middle" font-weight="700">51</text>
<rect x="670.1" y="130.0" width="187.9" height="28" fill="#334155"/>
<text x="764.1" y="150.0" font-family="Arial, sans-serif" font-size="11" fill="#FFFFFF" text-anchor="middle" font-weight="700">32</text>
<text x="866.0" y="150.0" font-family="Arial, sans-serif" font-size="11" fill="#374151" text-anchor="start" font-weight="700">124</text>
<text x="114.0" y="194.0" font-family="Arial, sans-serif" font-size="12" fill="#111827" text-anchor="end" font-weight="700">SAP</text>
<rect x="130.0" y="176.0" width="229.0" height="28" fill="#2E7D32"/>
<text x="244.5" y="196.0" font-family="Arial, sans-serif" font-size="11" fill="#FFFFFF" text-anchor="middle" font-weight="700">39</text>
<rect x="359.0" y="176.0" width="152.6" height="28" fill="#0E7490"/>
<text x="435.3" y="196.0" font-family="Arial, sans-serif" font-size="11" fill="#FFFFFF" text-anchor="middle" font-weight="700">26</text>
<rect x="511.6" y="176.0" width="229.0" height="28" fill="#334155"/>
<text x="626.1" y="196.0" font-family="Arial, sans-serif" font-size="11" fill="#FFFFFF" text-anchor="middle" font-weight="700">39</text>
<text x="866.0" y="196.0" font-family="Arial, sans-serif" font-size="11" fill="#374151" text-anchor="start" font-weight="700">104</text>
<text x="114.0" y="240.0" font-family="Arial, sans-serif" font-size="12" fill="#111827" text-anchor="end" font-weight="700">Zalando</text>
<rect x="130.0" y="222.0" width="258.3" height="28" fill="#2E7D32"/>
<text x="259.2" y="242.0" font-family="Arial, sans-serif" font-size="11" fill="#FFFFFF" text-anchor="middle" font-weight="700">44</text>
<rect x="388.3" y="222.0" width="240.7" height="28" fill="#0E7490"/>
<text x="508.7" y="242.0" font-family="Arial, sans-serif" font-size="11" fill="#FFFFFF" text-anchor="middle" font-weight="700">41</text>
<rect x="629.0" y="222.0" width="199.6" height="28" fill="#334155"/>
<text x="728.8" y="242.0" font-family="Arial, sans-serif" font-size="11" fill="#FFFFFF" text-anchor="middle" font-weight="700">34</text>
<text x="866.0" y="242.0" font-family="Arial, sans-serif" font-size="11" fill="#374151" text-anchor="start" font-weight="700">119</text>
<line x1="130" y1="268" x2="858" y2="268" stroke="#D1D5DB"/>
<text x="858.0" y="292.0" font-family="Arial, sans-serif" font-size="11" fill="#6B7280" text-anchor="end" font-weight="400">Total keyword hits</text>
</svg>