<svg xmlns="http://www.w3.org/2000/svg" width="980" height="700" viewBox="0 0 980 700">
<rect width="100%" height="100%" fill="#FFFFFF"/>
<text x="490.0" y="30.0" font-family="Arial, sans-serif" font-size="18" fill="#111827" text-anchor="middle" font-weight="700">Terms More Prominent in Actual Reports</text>
<text x="34.0" y="48.0" font-family="Arial, sans-serif" font-size="14" fill="#111827" text-anchor="start" font-weight="700">Amazon</text>
<rect x="34" y="62" width="455" height="285" fill="#F9FAFB" stroke="#E5E7EB" rx="6"/>
<text x="50.0" y="101.0" font-family="Arial, sans-serif" font-size="11" fill="#111827" text-anchor="start" font-weight="400">products</text>
<rect x="189" y="90" width="250.0" height="14" rx="3" fill="#2563EB"/>
<text x="447.0" y="102.0" font-family="Arial, sans-serif" font-size="10" fill="#374151" text-anchor="start" font-weight="700">215</text>
<text x="50.0" y="130.0" font-family="Arial, sans-serif" font-size="11" fill="#111827" text-anchor="start" font-weight="400">energy</text>
<rect x="189" y="119" width="233.7" height="14" rx="3" fill="#2563EB"/>
<text x="430.7" y="131.0" font-family="Arial, sans-serif" font-size="10" fill="#374151" text-anchor="start" font-weight="700">201</text>
<text x="50.0" y="159.0" font-family="Arial, sans-serif" font-size="11" fill="#111827" text-anchor="start" font-weight="400">carbon</text>
<rect x="189" y="148" width="200.0" height="14" rx="3" fill="#2563EB"/>
<text x="397.0" y="160.0" font-family="Arial, sans-serif" font-size="10" fill="#374151" text-anchor="start" font-weight="700">172</text>
<text x="50.0" y="188.0" font-family="Arial, sans-serif" font-size="11" fill="#111827" text-anchor="start" font-weight="400">water</text>
<rect x="189" y="177" width="176.7" height="14" rx="3" fill="#2563EB"/>
<text x="373.7" y="189.0" font-family="Arial, sans-serif" font-size="10" fill="#374151" text-anchor="start" font-weight="700">152</text>
<text x="50.0" y="217.0" font-family="Arial, sans-serif" font-size="11" fill="#111827" text-anchor="start" font-weight="400">waste</text>
<rect x="189" y="206" width="168.6" height="14" rx="3" fill="#2563EB"/>
<text x="365.6" y="218.0" font-family="Arial, sans-serif" font-size="10" fill="#374151" text-anchor="start" font-weight="700">145</text>
<text x="50.0" y="246.0" font-family="Arial, sans-serif" font-size="11" fill="#111827" text-anchor="start" font-weight="400">employees</text>
<rect x="189" y="235" width="166.3" height="14" rx="3" fill="#2563EB"/>
<text x="363.3" y="247.0" font-family="Arial, sans-serif" font-size="10" fill="#374151" text-anchor="start" font-weight="700">143</text>
<text x="50.0" y="275.0" font-family="Arial, sans-serif" font-size="11" fill="#111827" text-anchor="start" font-weight="400">progress</text>
<rect x="189" y="264" width="166.3" height="14" rx="3" fill="#2563EB"/>
<text x="363.3" y="276.0" font-family="Arial, sans-serif" font-size="10" fill="#374151" text-anchor="start" font-weight="700">143</text>
<text x="50.0" y="304.0" font-family="Arial, sans-serif" font-size="11" fill="#111827" text-anchor="start" font-weight="400">supply</text>
<rect x="189" y="293" width="159.3" height="14" rx="3" fill="#2563EB"/>
<text x="356.3" y="305.0" font-family="Arial, sans-serif" font-size="10" fill="#374151" text-anchor="start" font-weight="700">137</text>
<text x="510.0" y="48.0" font-family="Arial, sans-serif" font-size="14" fill="#111827" text-anchor="start" font-weight="700">Microsoft</text>
<rect x="510" y="62" width="455" height="285" fill="#F9FAFB" stroke="#E5E7EB" rx="6"/>
<text x="526.0" y="101.0" font-family="Arial, sans-serif" font-size="11" fill="#111827" text-anchor="start" font-weight="400">water</text>
<rect x="665" y="90" width="250.0" height="14" rx="3" fill="#0E7490"/>
<text x="923.0" y="102.0" font-family="Arial, sans-serif" font-size="10" fill="#374151" text-anchor="start" font-weight="700">373</text>
<text x="526.0" y="130.0" font-family="Arial, sans-serif" font-size="11" fill="#111827" text-anchor="start" font-weight="400">carbon</text>
<rect x="665" y="119" width="207.8" height="14" rx="3" fill="#0E7490"/>
<text x="880.8" y="131.0" font-family="Arial, sans-serif" font-size="10" fill="#374151" text-anchor="start" font-weight="700">310</text>
<text x="526.0" y="159.0" font-family="Arial, sans-serif" font-size="11" fill="#111827" text-anchor="start" font-weight="400">waste</text>
<rect x="665" y="148" width="146.8" height="14" rx="3" fill="#0E7490"/>
<text x="819.8" y="160.0" font-family="Arial, sans-serif" font-size="10" fill="#374151" text-anchor="start" font-weight="700">219</text>
<text x="526.0" y="188.0" font-family="Arial, sans-serif" font-size="11" fill="#111827" text-anchor="start" font-weight="400">global</text>
<rect x="665" y="177" width="131.4" height="14" rx="3" fill="#0E7490"/>
<text x="804.4" y="189.0" font-family="Arial, sans-serif" font-size="10" fill="#374151" text-anchor="start" font-weight="700">196</text>
<text x="526.0" y="217.0" font-family="Arial, sans-serif" font-size="11" fill="#111827" text-anchor="start" font-weight="400">energy</text>
<rect x="665" y="206" width="128.0" height="14" rx="3" fill="#0E7490"/>
<text x="801.0" y="218.0" font-family="Arial, sans-serif" font-size="10" fill="#374151" text-anchor="start" font-weight="700">191</text>
<text x="526.0" y="246.0" font-family="Arial, sans-serif" font-size="11" fill="#111827" text-anchor="start" font-weight="400">across</text>
<rect x="665" y="235" width="87.8" height="14" rx="3" fill="#0E7490"/>
<text x="760.8" y="247.0" font-family="Arial, sans-serif" font-size="10" fill="#374151" text-anchor="start" font-weight="700">131</text>
<text x="526.0" y="275.0" font-family="Arial, sans-serif" font-size="11" fill="#111827" text-anchor="start" font-weight="400">climate</text>
<rect x="665" y="264" width="83.8" height="14" rx="3" fill="#0E7490"/>
<text x="756.8" y="276.0" font-family="Arial, sans-serif" font-size="10" fill="#374151" text-anchor="start" font-weight="700">125</text>
<text x="526.0" y="304.0" font-family="Arial, sans-serif" font-size="11" fill="#111827" text-anchor="start" font-weight="400">new</text>
<rect x="665" y="293" width="83.8" height="14" rx="3" fill="#0E7490"/>
<text x="756.8" y="305.0" font-family="Arial, sans-serif" font-size="10" fill="#374151" text-anchor="start" font-weight="700">125</text>
<text x="34.0" y="371.0" font-family="Arial, sans-serif" font-size="14" fill="#111827" text-anchor="start" font-weight="700">SAP</text>
<rect x="34" y="385" width="455" height="285" fill="#F9FAFB" stroke="#E5E7EB" rx="6"/>
<text x="50.0" y="424.0" font-family="Arial, sans-serif" font-size="11" fill="#111827" text-anchor="start" font-weight="400">performance</text>
<rect x="189" y="413" width="250.0" height="14" rx="3" fill="#7C3AED"/>
<text x="447.0" y="425.0" font-family="Arial, sans-serif" font-size="10" fill="#374151" text-anchor="start" font-weight="700">31</text>
<text x="50.0" y="453.0" font-family="Arial, sans-serif" font-size="11" fill="#111827" text-anchor="start" font-weight="400">read</text>
<rect x="189" y="442" width="153.2" height="14" rx="3" fill="#7C3AED"/>
<text x="350.2" y="454.0" font-family="Arial, sans-serif" font-size="10" fill="#374151" text-anchor="start" font-weight="700">19</text>
<text x="50.0" y="482.0" font-family="Arial, sans-serif" font-size="11" fill="#111827" text-anchor="start" font-weight="400">growth</text>
<rect x="189" y="471" width="137.1" height="14" rx="3" fill="#7C3AED"/>
<text x="334.1" y="483.0" font-family="Arial, sans-serif" font-size="10" fill="#374151" text-anchor="start" font-weight="700">17</text>
<text x="50.0" y="511.0" font-family="Arial, sans-serif" font-size="11" fill="#111827" text-anchor="start" font-weight="400">customers</text>
<rect x="189" y="500" width="112.9" height="14" rx="3" fill="#7C3AED"/>
<text x="309.9" y="512.0" font-family="Arial, sans-serif" font-size="10" fill="#374151" text-anchor="start" font-weight="700">14</text>
<text x="50.0" y="540.0" font-family="Arial, sans-serif" font-size="11" fill="#111827" text-anchor="start" font-weight="400">cash</text>
<rect x="189" y="529" width="88.7" height="14" rx="3" fill="#7C3AED"/>
<text x="285.7" y="541.0" font-family="Arial, sans-serif" font-size="10" fill="#374151" text-anchor="start" font-weight="700">11</text>
<text x="50.0" y="569.0" font-family="Arial, sans-serif" font-size="11" fill="#111827" text-anchor="start" font-weight="400">commitment</text>
<rect x="189" y="558" width="88.7" height="14" rx="3" fill="#7C3AED"/>
<text x="285.7" y="570.0" font-family="Arial, sans-serif" font-size="10" fill="#374151" text-anchor="start" font-weight="700">11</text>
<text x="50.0" y="598.0" font-family="Arial, sans-serif" font-size="11" fill="#111827" text-anchor="start" font-weight="400">hub</text>
<rect x="189" y="587" width="88.7" height="14" rx="3" fill="#7C3AED"/>
<text x="285.7" y="599.0" font-family="Arial, sans-serif" font-size="10" fill="#374151" text-anchor="start" font-weight="700">11</text>
<text x="50.0" y="627.0" font-family="Arial, sans-serif" font-size="11" fill="#111827" text-anchor="start" font-weight="400">key</text>
<rect x="189" y="616" width="88.7" height="14" rx="3" fill="#7C3AED"/>
<text x="285.7" y="628.0" font-family="Arial, sans-serif" font-size="10" fill="#374151" text-anchor="start" font-weight="700">11</text>
<text x="510.0" y="371.0" font-family="Arial, sans-serif" font-size="14" fill="#111827" text-anchor="start" font-weight="700">Zalando</text>
<rect x="510" y="385" width="455" height="285" fill="#F9FAFB" stroke="#E5E7EB" rx="6"/>
<text x="526.0" y="424.0" font-family="Arial, sans-serif" font-size="11" fill="#111827" text-anchor="start" font-weight="400">eur</text>
<rect x="665" y="413" width="250.0" height="14" rx="3" fill="#B45309"/>
<text x="923.0" y="425.0" font-family="Arial, sans-serif" font-size="10" fill="#374151" text-anchor="start" font-weight="700">912</text>
<text x="526.0" y="453.0" font-family="Arial, sans-serif" font-size="11" fill="#111827" text-anchor="start" font-weight="400">board</text>
<rect x="665" y="442" width="190.5" height="14" rx="3" fill="#B45309"/>
<text x="863.5" y="454.0" font-family="Arial, sans-serif" font-size="10" fill="#374151" text-anchor="start" font-weight="700">695</text>
<text x="526.0" y="482.0" font-family="Arial, sans-serif" font-size="11" fill="#111827" text-anchor="start" font-weight="400">management</text>
<rect x="665" y="471" width="177.1" height="14" rx="3" fill="#B45309"/>
<text x="850.1" y="483.0" font-family="Arial, sans-serif" font-size="10" fill="#374151" text-anchor="start" font-weight="700">646</text>
<text x="526.0" y="511.0" font-family="Arial, sans-serif" font-size="11" fill="#111827" text-anchor="start" font-weight="400">lti</text>
<rect x="665" y="500" width="98.7" height="14" rx="3" fill="#B45309"/>
<text x="771.7" y="512.0" font-family="Arial, sans-serif" font-size="10" fill="#374151" text-anchor="start" font-weight="700">360</text>
<text x="526.0" y="540.0" font-family="Arial, sans-serif" font-size="11" fill="#111827" text-anchor="start" font-weight="400">prior</text>
<rect x="665" y="529" width="96.5" height="14" rx="3" fill="#B45309"/>
<text x="769.5" y="541.0" font-family="Arial, sans-serif" font-size="10" fill="#374151" text-anchor="start" font-weight="700">352</text>
<text x="526.0" y="569.0" font-family="Arial, sans-serif" font-size="11" fill="#111827" text-anchor="start" font-weight="400">supervisory</text>
<rect x="665" y="558" width="95.1" height="14" rx="3" fill="#B45309"/>
<text x="768.1" y="570.0" font-family="Arial, sans-serif" font-size="10" fill="#374151" text-anchor="start" font-weight="700">347</text>
<text x="526.0" y="598.0" font-family="Arial, sans-serif" font-size="11" fill="#111827" text-anchor="start" font-weight="400">esrs</text>
<rect x="665" y="587" width="94.0" height="14" rx="3" fill="#B45309"/>
<text x="767.0" y="599.0" font-family="Arial, sans-serif" font-size="10" fill="#374151" text-anchor="start" font-weight="700">343</text>
<text x="526.0" y="627.0" font-family="Arial, sans-serif" font-size="11" fill="#111827" text-anchor="start" font-weight="400">value</text>
<rect x="665" y="616" width="92.4" height="14" rx="3" fill="#B45309"/>
<text x="765.4" y="628.0" font-family="Arial, sans-serif" font-size="10" fill="#374151" text-anchor="start" font-weight="700">337</text>
</svg>