<svg xmlns="http://www.w3.org/2000/svg" width="940" height="430" viewBox="0 0 940 430">
<rect width="100%" height="100%" fill="#FFFFFF"/>
<text x="470.0" y="28.0" font-family="Arial, sans-serif" font-size="18" fill="#111827" text-anchor="middle" font-weight="700">Risk-to-Success Tone Ratio</text>
<text x="750.0" y="54.0" font-family="Arial, sans-serif" font-size="11" fill="#374151" text-anchor="start" font-weight="400">Generated</text>
<rect x="725" y="44" width="14" height="14" rx="2" fill="#2563EB"/>
<text x="852.0" y="54.0" font-family="Arial, sans-serif" font-size="11" fill="#374151" text-anchor="start" font-weight="400">Actual</text>
<rect x="827" y="44" width="14" height="14" rx="2" fill="#0E7490"/>
<line x1="76" y1="352.0" x2="906" y2="352.0" stroke="#E5E7EB"/>
<text x="67.0" y="356.0" font-family="Arial, sans-serif" font-size="10" fill="#6B7280" text-anchor="end" font-weight="400">0</text>
<line x1="76" y1="294.0" x2="906" y2="294.0" stroke="#E5E7EB"/>
<text x="67.0" y="298.0" font-family="Arial, sans-serif" font-size="10" fill="#6B7280" text-anchor="end" font-weight="400">1</text>
<line x1="76" y1="236.0" x2="906" y2="236.0" stroke="#E5E7EB"/>
<text x="67.0" y="240.0" font-family="Arial, sans-serif" font-size="10" fill="#6B7280" text-anchor="end" font-weight="400">1</text>
<line x1="76" y1="178.0" x2="906" y2="178.0" stroke="#E5E7EB"/>
<text x="67.0" y="182.0" font-family="Arial, sans-serif" font-size="10" fill="#6B7280" text-anchor="end" font-weight="400">2</text>
<line x1="76" y1="120.0" x2="906" y2="120.0" stroke="#E5E7EB"/>
<text x="67.0" y="124.0" font-family="Arial, sans-serif" font-size="10" fill="#6B7280" text-anchor="end" font-weight="400">2</text>
<line x1="76" y1="62.0" x2="906" y2="62.0" stroke="#E5E7EB"/>
<text x="67.0" y="66.0" font-family="Arial, sans-serif" font-size="10" fill="#6B7280" text-anchor="end" font-weight="400">3</text>
<line x1="76" y1="62" x2="76" y2="352" stroke="#9CA3AF"/>
<line x1="76" y1="352" x2="906" y2="352" stroke="#9CA3AF"/>
<text transform="rotate(-90 18 207.0)" x="18.0" y="207.0" font-family="Arial, sans-serif" font-size="12" fill="#4B5563" text-anchor="middle" font-weight="600">Ratio</text>
<rect x="158.8" y="123.2" width="34" height="228.8" rx="4" fill="#2563EB"/>
<text x="175.8" y="117.2" font-family="Arial, sans-serif" font-size="9" fill="#111827" text-anchor="middle" font-weight="700">2.2</text>
<rect x="200.8" y="317.2" width="34" height="34.8" rx="4" fill="#0E7490"/>
<text x="217.8" y="311.2" font-family="Arial, sans-serif" font-size="9" fill="#111827" text-anchor="middle" font-weight="700">0.3</text>
<text x="179.8" y="376.0" font-family="Arial, sans-serif" font-size="12" fill="#111827" text-anchor="middle" font-weight="700">Amazon</text>
<rect x="366.2" y="120.0" width="34" height="232.0" rx="4" fill="#2563EB"/>
<text x="383.2" y="114.0" font-family="Arial, sans-serif" font-size="9" fill="#111827" text-anchor="middle" font-weight="700">2.2</text>
<rect x="408.2" y="322.5" width="34" height="29.5" rx="4" fill="#0E7490"/>
<text x="425.2" y="316.5" font-family="Arial, sans-serif" font-size="9" fill="#111827" text-anchor="middle" font-weight="700">0.3</text>
<text x="387.2" y="376.0" font-family="Arial, sans-serif" font-size="12" fill="#111827" text-anchor="middle" font-weight="700">Microsoft</text>
<rect x="573.8" y="257.1" width="34" height="94.9" rx="4" fill="#2563EB"/>
<text x="590.8" y="251.1" font-family="Arial, sans-serif" font-size="9" fill="#111827" text-anchor="middle" font-weight="700">0.9</text>
<rect x="615.8" y="341.5" width="34" height="10.5" rx="4" fill="#0E7490"/>
<text x="632.8" y="335.5" font-family="Arial, sans-serif" font-size="9" fill="#111827" text-anchor="middle" font-weight="700">0.1</text>
<text x="594.8" y="376.0" font-family="Arial, sans-serif" font-size="12" fill="#111827" text-anchor="middle" font-weight="700">SAP</text>
<rect x="781.2" y="171.7" width="34" height="180.3" rx="4" fill="#2563EB"/>
<text x="798.2" y="165.7" font-family="Arial, sans-serif" font-size="9" fill="#111827" text-anchor="middle" font-weight="700">1.7</text>
<rect x="823.2" y="198.0" width="34" height="154.0" rx="4" fill="#0E7490"/>
<text x="840.2" y="192.0" font-family="Arial, sans-serif" font-size="9" fill="#111827" text-anchor="middle" font-weight="700">1.5</text>
<text x="802.2" y="376.0" font-family="Arial, sans-serif" font-size="12" fill="#111827" text-anchor="middle" font-weight="700">Zalando</text>
</svg>