<svg xmlns="http://www.w3.org/2000/svg" width="900" height="430" viewBox="0 0 900 430">
<rect width="100%" height="100%" fill="#FFFFFF"/>
<text x="450.0" y="28.0" font-family="Arial, sans-serif" font-size="18" fill="#111827" text-anchor="middle" font-weight="700">Generated vs. Actual Text Similarity</text>
<rect x="650" y="44" width="14" height="14" rx="2" fill="#7C3AED"/>
<text x="672.0" y="56.0" font-family="Arial, sans-serif" font-size="11" fill="#374151" text-anchor="start" font-weight="400">TF-IDF cosine</text>
<rect x="770" y="44" width="14" height="14" rx="2" fill="#B45309"/>
<text x="792.0" y="56.0" font-family="Arial, sans-serif" font-size="11" fill="#374151" text-anchor="start" font-weight="400">Jaccard</text>
<line x1="78" y1="352.0" x2="864" y2="352.0" stroke="#E5E7EB"/>
<text x="69.0" y="356.0" font-family="Arial, sans-serif" font-size="10" fill="#6B7280" text-anchor="end" font-weight="400">0.0</text>
<line x1="78" y1="294.0" x2="864" y2="294.0" stroke="#E5E7EB"/>
<text x="69.0" y="298.0" font-family="Arial, sans-serif" font-size="10" fill="#6B7280" text-anchor="end" font-weight="400">0.2</text>
<line x1="78" y1="236.0" x2="864" y2="236.0" stroke="#E5E7EB"/>
<text x="69.0" y="240.0" font-family="Arial, sans-serif" font-size="10" fill="#6B7280" text-anchor="end" font-weight="400">0.4</text>
<line x1="78" y1="178.0" x2="864" y2="178.0" stroke="#E5E7EB"/>
<text x="69.0" y="182.0" font-family="Arial, sans-serif" font-size="10" fill="#6B7280" text-anchor="end" font-weight="400">0.6</text>
<line x1="78" y1="120.0" x2="864" y2="120.0" stroke="#E5E7EB"/>
<text x="69.0" y="124.0" font-family="Arial, sans-serif" font-size="10" fill="#6B7280" text-anchor="end" font-weight="400">0.8</text>
<line x1="78" y1="62.0" x2="864" y2="62.0" stroke="#E5E7EB"/>
<text x="69.0" y="66.0" font-family="Arial, sans-serif" font-size="10" fill="#6B7280" text-anchor="end" font-weight="400">1.0</text>
<line x1="78" y1="62" x2="78" y2="352" stroke="#9CA3AF"/>
<line x1="78" y1="352" x2="864" y2="352" stroke="#9CA3AF"/>
<rect x="155.2" y="268.7" width="34" height="83.3" rx="4" fill="#7C3AED"/>
<text x="172.2" y="262.7" font-family="Arial, sans-serif" font-size="10" fill="#111827" text-anchor="middle" font-weight="700">0.29</text>
<rect x="197.2" y="334.2" width="34" height="17.8" rx="4" fill="#B45309"/>
<text x="214.2" y="328.2" font-family="Arial, sans-serif" font-size="10" fill="#111827" text-anchor="middle" font-weight="700">0.06</text>
<text x="176.2" y="376.0" font-family="Arial, sans-serif" font-size="12" fill="#111827" text-anchor="middle" font-weight="700">Amazon</text>
<rect x="351.8" y="266.3" width="34" height="85.7" rx="4" fill="#7C3AED"/>
<text x="368.8" y="260.3" font-family="Arial, sans-serif" font-size="10" fill="#111827" text-anchor="middle" font-weight="700">0.30</text>
<rect x="393.8" y="336.3" width="34" height="15.7" rx="4" fill="#B45309"/>
<text x="410.8" y="330.3" font-family="Arial, sans-serif" font-size="10" fill="#111827" text-anchor="middle" font-weight="700">0.05</text>
<text x="372.8" y="376.0" font-family="Arial, sans-serif" font-size="12" fill="#111827" text-anchor="middle" font-weight="700">Microsoft</text>
<rect x="548.2" y="280.3" width="34" height="71.7" rx="4" fill="#7C3AED"/>
<text x="565.2" y="274.3" font-family="Arial, sans-serif" font-size="10" fill="#111827" text-anchor="middle" font-weight="700">0.25</text>
<rect x="590.2" y="338.8" width="34" height="13.2" rx="4" fill="#B45309"/>
<text x="607.2" y="332.8" font-family="Arial, sans-serif" font-size="10" fill="#111827" text-anchor="middle" font-weight="700">0.05</text>
<text x="569.2" y="376.0" font-family="Arial, sans-serif" font-size="12" fill="#111827" text-anchor="middle" font-weight="700">SAP</text>
<rect x="744.8" y="271.8" width="34" height="80.2" rx="4" fill="#7C3AED"/>
<text x="761.8" y="265.8" font-family="Arial, sans-serif" font-size="10" fill="#111827" text-anchor="middle" font-weight="700">0.28</text>
<rect x="786.8" y="336.1" width="34" height="15.9" rx="4" fill="#B45309"/>
<text x="803.8" y="330.1" font-family="Arial, sans-serif" font-size="10" fill="#111827" text-anchor="middle" font-weight="700">0.05</text>
<text x="765.8" y="376.0" font-family="Arial, sans-serif" font-size="12" fill="#111827" text-anchor="middle" font-weight="700">Zalando</text>
</svg>