<svg xmlns="http://www.w3.org/2000/svg" width="940" height="430" viewBox="0 0 940 430">
<rect width="100%" height="100%" fill="#FFFFFF"/>
<text x="470.0" y="28.0" font-family="Arial, sans-serif" font-size="18" fill="#111827" text-anchor="middle" font-weight="700">Word Count: Generated vs. Actual</text>
<text x="750.0" y="54.0" font-family="Arial, sans-serif" font-size="11" fill="#374151" text-anchor="start" font-weight="400">Generated</text>
<rect x="725" y="44" width="14" height="14" rx="2" fill="#2563EB"/>
<text x="852.0" y="54.0" font-family="Arial, sans-serif" font-size="11" fill="#374151" text-anchor="start" font-weight="400">Actual</text>
<rect x="827" y="44" width="14" height="14" rx="2" fill="#0E7490"/>
<line x1="76" y1="352.0" x2="906" y2="352.0" stroke="#E5E7EB"/>
<text x="67.0" y="356.0" font-family="Arial, sans-serif" font-size="10" fill="#6B7280" text-anchor="end" font-weight="400">0</text>
<line x1="76" y1="294.0" x2="906" y2="294.0" stroke="#E5E7EB"/>
<text x="67.0" y="298.0" font-family="Arial, sans-serif" font-size="10" fill="#6B7280" text-anchor="end" font-weight="400">27198</text>
<line x1="76" y1="236.0" x2="906" y2="236.0" stroke="#E5E7EB"/>
<text x="67.0" y="240.0" font-family="Arial, sans-serif" font-size="10" fill="#6B7280" text-anchor="end" font-weight="400">54396</text>
<line x1="76" y1="178.0" x2="906" y2="178.0" stroke="#E5E7EB"/>
<text x="67.0" y="182.0" font-family="Arial, sans-serif" font-size="10" fill="#6B7280" text-anchor="end" font-weight="400">81594</text>
<line x1="76" y1="120.0" x2="906" y2="120.0" stroke="#E5E7EB"/>
<text x="67.0" y="124.0" font-family="Arial, sans-serif" font-size="10" fill="#6B7280" text-anchor="end" font-weight="400">108792</text>
<line x1="76" y1="62.0" x2="906" y2="62.0" stroke="#E5E7EB"/>
<text x="67.0" y="66.0" font-family="Arial, sans-serif" font-size="10" fill="#6B7280" text-anchor="end" font-weight="400">135990</text>
<line x1="76" y1="62" x2="76" y2="352" stroke="#9CA3AF"/>
<line x1="76" y1="352" x2="906" y2="352" stroke="#9CA3AF"/>
<text transform="rotate(-90 18 207.0)" x="18.0" y="207.0" font-family="Arial, sans-serif" font-size="12" fill="#4B5563" text-anchor="middle" font-weight="600">Words</text>
<rect x="158.8" y="349.7" width="34" height="2.3" rx="4" fill="#2563EB"/>
<text x="175.8" y="343.7" font-family="Arial, sans-serif" font-size="9" fill="#111827" text-anchor="middle" font-weight="700">1061</text>
<rect x="200.8" y="261.9" width="34" height="90.1" rx="4" fill="#0E7490"/>
<text x="217.8" y="255.9" font-family="Arial, sans-serif" font-size="9" fill="#111827" text-anchor="middle" font-weight="700">42256</text>
<text x="179.8" y="376.0" font-family="Arial, sans-serif" font-size="12" fill="#111827" text-anchor="middle" font-weight="700">Amazon</text>
<rect x="366.2" y="350.1" width="34" height="1.9" rx="4" fill="#2563EB"/>
<text x="383.2" y="344.1" font-family="Arial, sans-serif" font-size="9" fill="#111827" text-anchor="middle" font-weight="700">914</text>
<rect x="408.2" y="266.8" width="34" height="85.2" rx="4" fill="#0E7490"/>
<text x="425.2" y="260.8" font-family="Arial, sans-serif" font-size="9" fill="#111827" text-anchor="middle" font-weight="700">39940</text>
<text x="387.2" y="376.0" font-family="Arial, sans-serif" font-size="12" fill="#111827" text-anchor="middle" font-weight="700">Microsoft</text>
<rect x="573.8" y="350.1" width="34" height="1.9" rx="4" fill="#2563EB"/>
<text x="590.8" y="344.1" font-family="Arial, sans-serif" font-size="9" fill="#111827" text-anchor="middle" font-weight="700">883</text>
<rect x="615.8" y="126.9" width="34" height="225.1" rx="4" fill="#0E7490"/>
<text x="632.8" y="120.9" font-family="Arial, sans-serif" font-size="9" fill="#111827" text-anchor="middle" font-weight="700">105533</text>
<text x="594.8" y="376.0" font-family="Arial, sans-serif" font-size="12" fill="#111827" text-anchor="middle" font-weight="700">SAP</text>
<rect x="781.2" y="349.6" width="34" height="2.4" rx="4" fill="#2563EB"/>
<text x="798.2" y="343.6" font-family="Arial, sans-serif" font-size="9" fill="#111827" text-anchor="middle" font-weight="700">1115</text>
<rect x="823.2" y="75.8" width="34" height="276.2" rx="4" fill="#0E7490"/>
<text x="840.2" y="69.8" font-family="Arial, sans-serif" font-size="9" fill="#111827" text-anchor="middle" font-weight="700">129514</text>
<text x="802.2" y="376.0" font-family="Arial, sans-serif" font-size="12" fill="#111827" text-anchor="middle" font-weight="700">Zalando</text>
</svg>