<svg xmlns="http://www.w3.org/2000/svg" width="820" height="440" viewBox="0 0 820 440">
<rect width="100%" height="100%" fill="#FFFFFF"/>
<text x="410.0" y="28.0" font-family="Arial, sans-serif" font-size="18" fill="#111827" text-anchor="middle" font-weight="700">Average Sentence Length</text>
<text transform="rotate(-90 18 215.0)" x="18.0" y="215.0" font-family="Arial, sans-serif" font-size="12" fill="#4B5563" text-anchor="middle" font-weight="600">Words per sentence</text>
<line x1="76" y1="370.0" x2="788" y2="370.0" stroke="#E5E7EB" stroke-width="1"/>
<text x="66.0" y="374.0" font-family="Arial, sans-serif" font-size="10" fill="#6B7280" text-anchor="end" font-weight="400">0</text>
<line x1="76" y1="308.0" x2="788" y2="308.0" stroke="#E5E7EB" stroke-width="1"/>
<text x="66.0" y="312.0" font-family="Arial, sans-serif" font-size="10" fill="#6B7280" text-anchor="end" font-weight="400">4</text>
<line x1="76" y1="246.0" x2="788" y2="246.0" stroke="#E5E7EB" stroke-width="1"/>
<text x="66.0" y="250.0" font-family="Arial, sans-serif" font-size="10" fill="#6B7280" text-anchor="end" font-weight="400">8</text>
<line x1="76" y1="184.0" x2="788" y2="184.0" stroke="#E5E7EB" stroke-width="1"/>
<text x="66.0" y="188.0" font-family="Arial, sans-serif" font-size="10" fill="#6B7280" text-anchor="end" font-weight="400">12</text>
<line x1="76" y1="122.0" x2="788" y2="122.0" stroke="#E5E7EB" stroke-width="1"/>
<text x="66.0" y="126.0" font-family="Arial, sans-serif" font-size="10" fill="#6B7280" text-anchor="end" font-weight="400">16</text>
<line x1="76" y1="60.0" x2="788" y2="60.0" stroke="#E5E7EB" stroke-width="1"/>
<text x="66.0" y="64.0" font-family="Arial, sans-serif" font-size="10" fill="#6B7280" text-anchor="end" font-weight="400">20</text>
<line x1="76" y1="60" x2="76" y2="370" stroke="#9CA3AF"/>
<line x1="76" y1="370" x2="788" y2="370" stroke="#9CA3AF"/>
<rect x="76.0" y="100.4" width="157.0" height="269.6" rx="4" fill="#0E7490"/>
<text x="154.5" y="92.4" font-family="Arial, sans-serif" font-size="11" fill="#111827" text-anchor="middle" font-weight="700">17.1</text>
<text x="154.5" y="394.0" font-family="Arial, sans-serif" font-size="12" fill="#111827" text-anchor="middle" font-weight="600">Amazon</text>
<rect x="261.0" y="103.3" width="157.0" height="266.7" rx="4" fill="#0E7490"/>
<text x="339.5" y="95.3" font-family="Arial, sans-serif" font-size="11" fill="#111827" text-anchor="middle" font-weight="700">16.9</text>
<text x="339.5" y="394.0" font-family="Arial, sans-serif" font-size="12" fill="#111827" text-anchor="middle" font-weight="600">Microsoft</text>
<rect x="446.0" y="107.5" width="157.0" height="262.5" rx="4" fill="#0E7490"/>
<text x="524.5" y="99.5" font-family="Arial, sans-serif" font-size="11" fill="#111827" text-anchor="middle" font-weight="700">16.7</text>
<text x="524.5" y="394.0" font-family="Arial, sans-serif" font-size="12" fill="#111827" text-anchor="middle" font-weight="600">SAP</text>
<rect x="631.0" y="107.8" width="157.0" height="262.2" rx="4" fill="#0E7490"/>
<text x="709.5" y="99.8" font-family="Arial, sans-serif" font-size="11" fill="#111827" text-anchor="middle" font-weight="700">16.6</text>
<text x="709.5" y="394.0" font-family="Arial, sans-serif" font-size="12" fill="#111827" text-anchor="middle" font-weight="600">Zalando</text>
</svg>